<?xml version="1.0" encoding="iso-8859-1"?>
<!-- Generator: Adobe Illustrator 19.0.0, SVG Export Plug-In . SVG Version: 6.00 Build 0)  -->
<svg version="1.1" id="Layer_1" xmlns="http://www.w3.org/2000/svg" xmlns:xlink="http://www.w3.org/1999/xlink" x="0px" y="0px"
	 viewBox="0 0 512 512" style="enable-background:new 0 0 512 512;" xml:space="preserve">
<g>
	<g>
		<path d="M437.02,74.982C388.667,26.628,324.38,0,256,0S123.333,26.628,74.98,74.982C26.628,123.333,0,187.619,0,256
			s26.628,132.667,74.98,181.019C123.333,485.372,187.62,512,256,512s132.667-26.628,181.02-74.981
			C485.372,388.667,512,324.381,512,256S485.372,123.333,437.02,74.982z M256,491.602c-129.911,0-235.602-105.69-235.602-235.602
			S126.089,20.398,256,20.398S491.602,126.089,491.602,256S385.911,491.602,256,491.602z"/>
	</g>
</g>
<g>
	<g>
		<path d="M230.502,110.172h-62.215c-5.633,0-10.199,4.567-10.199,10.199v271.258c0,5.632,4.566,10.199,10.199,10.199h62.215
			c5.633,0,10.199-4.566,10.199-10.199V120.371C240.701,114.739,236.135,110.172,230.502,110.172z M220.303,381.43h-41.817V130.57
			h41.817V381.43z"/>
	</g>
</g>
<g>
	<g>
		<path d="M343.713,110.172h-62.215c-5.633,0-10.199,4.567-10.199,10.199v271.258c0,5.632,4.566,10.199,10.199,10.199h62.215
			c5.633,0,10.199-4.566,10.199-10.199V120.371C353.912,114.739,349.346,110.172,343.713,110.172z M333.514,381.43h-41.817V130.57
			h41.817V381.43z"/>
	</g>
</g>
<g>
	<g>
		<path d="M410.058,394.699c-3.996-3.971-10.453-3.95-14.424,0.046c-37.229,37.467-86.82,58.1-139.634,58.1
			c-5.633,0-10.199,4.567-10.199,10.199c0,5.632,4.566,10.199,10.199,10.199c58.287,0,113.016-22.772,154.103-64.119
			C414.074,405.128,414.053,398.671,410.058,394.699z"/>
	</g>
</g>
<g>
	<g>
		<path d="M440.18,351.218c-4.869-2.835-11.112-1.186-13.945,3.684c-1.405,2.414-2.89,4.843-4.413,7.217
			c-3.04,4.742-1.662,11.051,3.079,14.091c1.704,1.092,3.612,1.615,5.496,1.615c3.359,0,6.647-1.657,8.595-4.693
			c1.681-2.621,3.32-5.302,4.872-7.969C446.698,360.295,445.048,354.051,440.18,351.218z"/>
	</g>
</g>
<g>
</g>
<g>
</g>
<g>
</g>
<g>
</g>
<g>
</g>
<g>
</g>
<g>
</g>
<g>
</g>
<g>
</g>
<g>
</g>
<g>
</g>
<g>
</g>
<g>
</g>
<g>
</g>
<g>
</g>
</svg>
